<svg xmlns="http://www.w3.org/2000/svg" viewBox="0 0 512 512">
  <path fill="black" d="M368,192H352V112c0-53.02-42.98-96-96-96S160,58.98,160,112v80H144a64.07,64.07,0,0,0-64,64V448a64.07,64.07,0,0,0,64,64H368a64.07,64.07,0,0,0,64-64V256A64.07,64.07,0,0,0,368,192Zm-160-80c0-26.47,21.53-48,48-48s48,21.53,48,48v80H208Zm184,336a16,16,0,0,1-16,16H144a16,16,0,0,1-16-16V256a16,16,0,0,1,16-16H368a16,16,0,0,1,16,16Z"/>
  <circle fill="black" cx="256" cy="336" r="32"/>
  <rect fill="black" x="240" y="360" width="32" height="64" rx="16"/>
</svg>